<mxfile host="app.diagrams.net" modified="2022-03-12T16:35:56.444Z" agent="5.0 (Macintosh; Intel Mac OS X 10_15_7) AppleWebKit/537.36 (KHTML, like Gecko) Chrome/99.0.4844.51 Safari/537.36" etag="4_3Djo7DCv4ZjwV28Ab9" version="16.6.6" type="github">
  <diagram id="C5RBs43oDa-KdzZeNtuy" name="Page-1">
    <mxGraphModel dx="1186" dy="739" grid="1" gridSize="10" guides="1" tooltips="1" connect="1" arrows="1" fold="1" page="1" pageScale="1" pageWidth="827" pageHeight="1169" math="0" shadow="0">
      <root>
        <mxCell id="WIyWlLk6GJQsqaUBKTNV-0" />
        <mxCell id="WIyWlLk6GJQsqaUBKTNV-1" parent="WIyWlLk6GJQsqaUBKTNV-0" />
        <mxCell id="gcg96TqwbtlWgiSGzW3N-11" style="edgeStyle=orthogonalEdgeStyle;rounded=0;orthogonalLoop=1;jettySize=auto;html=1;exitX=0.5;exitY=1;exitDx=0;exitDy=0;entryX=0.5;entryY=0;entryDx=0;entryDy=0;" parent="WIyWlLk6GJQsqaUBKTNV-1" source="WIyWlLk6GJQsqaUBKTNV-3" target="gcg96TqwbtlWgiSGzW3N-0" edge="1">
          <mxGeometry relative="1" as="geometry" />
        </mxCell>
        <mxCell id="WIyWlLk6GJQsqaUBKTNV-3" value="开始" style="rounded=1;whiteSpace=wrap;html=1;fontSize=12;glass=0;strokeWidth=1;shadow=0;" parent="WIyWlLk6GJQsqaUBKTNV-1" vertex="1">
          <mxGeometry x="160" y="40" width="120" height="40" as="geometry" />
        </mxCell>
        <mxCell id="WIyWlLk6GJQsqaUBKTNV-4" value="Yes" style="rounded=0;html=1;jettySize=auto;orthogonalLoop=1;fontSize=11;endArrow=block;endFill=0;endSize=8;strokeWidth=1;shadow=0;labelBackgroundColor=none;edgeStyle=orthogonalEdgeStyle;" parent="WIyWlLk6GJQsqaUBKTNV-1" source="WIyWlLk6GJQsqaUBKTNV-6" target="WIyWlLk6GJQsqaUBKTNV-10" edge="1">
          <mxGeometry y="20" relative="1" as="geometry">
            <mxPoint as="offset" />
          </mxGeometry>
        </mxCell>
        <mxCell id="WIyWlLk6GJQsqaUBKTNV-5" value="No" style="edgeStyle=orthogonalEdgeStyle;rounded=0;html=1;jettySize=auto;orthogonalLoop=1;fontSize=11;endArrow=block;endFill=0;endSize=8;strokeWidth=1;shadow=0;labelBackgroundColor=none;" parent="WIyWlLk6GJQsqaUBKTNV-1" source="WIyWlLk6GJQsqaUBKTNV-6" target="WIyWlLk6GJQsqaUBKTNV-7" edge="1">
          <mxGeometry y="10" relative="1" as="geometry">
            <mxPoint as="offset" />
          </mxGeometry>
        </mxCell>
        <mxCell id="WIyWlLk6GJQsqaUBKTNV-6" value="登入" style="rhombus;whiteSpace=wrap;html=1;shadow=0;fontFamily=Helvetica;fontSize=12;align=center;strokeWidth=1;spacing=6;spacingTop=-4;" parent="WIyWlLk6GJQsqaUBKTNV-1" vertex="1">
          <mxGeometry x="1020" y="490" width="100" height="80" as="geometry" />
        </mxCell>
        <mxCell id="WIyWlLk6GJQsqaUBKTNV-7" value="Plug in lamp" style="rounded=1;whiteSpace=wrap;html=1;fontSize=12;glass=0;strokeWidth=1;shadow=0;" parent="WIyWlLk6GJQsqaUBKTNV-1" vertex="1">
          <mxGeometry x="730" y="110" width="120" height="40" as="geometry" />
        </mxCell>
        <mxCell id="WIyWlLk6GJQsqaUBKTNV-8" value="No" style="rounded=0;html=1;jettySize=auto;orthogonalLoop=1;fontSize=11;endArrow=block;endFill=0;endSize=8;strokeWidth=1;shadow=0;labelBackgroundColor=none;edgeStyle=orthogonalEdgeStyle;" parent="WIyWlLk6GJQsqaUBKTNV-1" source="WIyWlLk6GJQsqaUBKTNV-10" target="WIyWlLk6GJQsqaUBKTNV-11" edge="1">
          <mxGeometry x="0.3333" y="20" relative="1" as="geometry">
            <mxPoint as="offset" />
          </mxGeometry>
        </mxCell>
        <mxCell id="WIyWlLk6GJQsqaUBKTNV-9" value="Yes" style="edgeStyle=orthogonalEdgeStyle;rounded=0;html=1;jettySize=auto;orthogonalLoop=1;fontSize=11;endArrow=block;endFill=0;endSize=8;strokeWidth=1;shadow=0;labelBackgroundColor=none;" parent="WIyWlLk6GJQsqaUBKTNV-1" source="WIyWlLk6GJQsqaUBKTNV-10" target="WIyWlLk6GJQsqaUBKTNV-12" edge="1">
          <mxGeometry y="10" relative="1" as="geometry">
            <mxPoint as="offset" />
          </mxGeometry>
        </mxCell>
        <mxCell id="WIyWlLk6GJQsqaUBKTNV-10" value="Bulb&lt;br&gt;burned out?" style="rhombus;whiteSpace=wrap;html=1;shadow=0;fontFamily=Helvetica;fontSize=12;align=center;strokeWidth=1;spacing=6;spacingTop=-4;" parent="WIyWlLk6GJQsqaUBKTNV-1" vertex="1">
          <mxGeometry x="790" y="560" width="100" height="80" as="geometry" />
        </mxCell>
        <mxCell id="WIyWlLk6GJQsqaUBKTNV-11" value="Repair Lamp" style="rounded=1;whiteSpace=wrap;html=1;fontSize=12;glass=0;strokeWidth=1;shadow=0;" parent="WIyWlLk6GJQsqaUBKTNV-1" vertex="1">
          <mxGeometry x="750" y="240" width="120" height="40" as="geometry" />
        </mxCell>
        <mxCell id="WIyWlLk6GJQsqaUBKTNV-12" value="Replace Bulb" style="rounded=1;whiteSpace=wrap;html=1;fontSize=12;glass=0;strokeWidth=1;shadow=0;" parent="WIyWlLk6GJQsqaUBKTNV-1" vertex="1">
          <mxGeometry x="780" y="400" width="120" height="40" as="geometry" />
        </mxCell>
        <mxCell id="gcg96TqwbtlWgiSGzW3N-12" style="edgeStyle=orthogonalEdgeStyle;rounded=0;orthogonalLoop=1;jettySize=auto;html=1;exitX=0.5;exitY=1;exitDx=0;exitDy=0;entryX=0.5;entryY=0;entryDx=0;entryDy=0;" parent="WIyWlLk6GJQsqaUBKTNV-1" source="gcg96TqwbtlWgiSGzW3N-0" target="gcg96TqwbtlWgiSGzW3N-1" edge="1">
          <mxGeometry relative="1" as="geometry" />
        </mxCell>
        <mxCell id="gcg96TqwbtlWgiSGzW3N-0" value="选购商品" style="rounded=1;whiteSpace=wrap;html=1;fontSize=12;glass=0;strokeWidth=1;shadow=0;" parent="WIyWlLk6GJQsqaUBKTNV-1" vertex="1">
          <mxGeometry x="160" y="120" width="120" height="40" as="geometry" />
        </mxCell>
        <mxCell id="gcg96TqwbtlWgiSGzW3N-13" style="edgeStyle=orthogonalEdgeStyle;rounded=0;orthogonalLoop=1;jettySize=auto;html=1;exitX=0.5;exitY=1;exitDx=0;exitDy=0;entryX=0.5;entryY=0;entryDx=0;entryDy=0;" parent="WIyWlLk6GJQsqaUBKTNV-1" source="gcg96TqwbtlWgiSGzW3N-1" target="gcg96TqwbtlWgiSGzW3N-2" edge="1">
          <mxGeometry relative="1" as="geometry" />
        </mxCell>
        <mxCell id="gcg96TqwbtlWgiSGzW3N-1" value="加入购物车" style="rounded=1;whiteSpace=wrap;html=1;fontSize=12;glass=0;strokeWidth=1;shadow=0;" parent="WIyWlLk6GJQsqaUBKTNV-1" vertex="1">
          <mxGeometry x="160" y="210" width="120" height="40" as="geometry" />
        </mxCell>
        <mxCell id="gcg96TqwbtlWgiSGzW3N-4" value="" style="edgeStyle=orthogonalEdgeStyle;rounded=0;orthogonalLoop=1;jettySize=auto;html=1;" parent="WIyWlLk6GJQsqaUBKTNV-1" source="gcg96TqwbtlWgiSGzW3N-2" target="gcg96TqwbtlWgiSGzW3N-3" edge="1">
          <mxGeometry relative="1" as="geometry" />
        </mxCell>
        <mxCell id="gcg96TqwbtlWgiSGzW3N-5" value="否" style="edgeLabel;html=1;align=center;verticalAlign=middle;resizable=0;points=[];" parent="gcg96TqwbtlWgiSGzW3N-4" vertex="1" connectable="0">
          <mxGeometry x="-0.1333" y="2" relative="1" as="geometry">
            <mxPoint as="offset" />
          </mxGeometry>
        </mxCell>
        <mxCell id="gcg96TqwbtlWgiSGzW3N-10" value="" style="edgeStyle=orthogonalEdgeStyle;rounded=0;orthogonalLoop=1;jettySize=auto;html=1;" parent="WIyWlLk6GJQsqaUBKTNV-1" source="gcg96TqwbtlWgiSGzW3N-2" target="gcg96TqwbtlWgiSGzW3N-9" edge="1">
          <mxGeometry relative="1" as="geometry" />
        </mxCell>
        <mxCell id="gcg96TqwbtlWgiSGzW3N-2" value="是否登入" style="rhombus;whiteSpace=wrap;html=1;shadow=0;fontFamily=Helvetica;fontSize=12;align=center;strokeWidth=1;spacing=6;spacingTop=-4;" parent="WIyWlLk6GJQsqaUBKTNV-1" vertex="1">
          <mxGeometry x="170" y="290" width="100" height="80" as="geometry" />
        </mxCell>
        <mxCell id="gcg96TqwbtlWgiSGzW3N-7" style="edgeStyle=orthogonalEdgeStyle;rounded=0;orthogonalLoop=1;jettySize=auto;html=1;exitX=0.5;exitY=0;exitDx=0;exitDy=0;entryX=1;entryY=0.5;entryDx=0;entryDy=0;" parent="WIyWlLk6GJQsqaUBKTNV-1" source="gcg96TqwbtlWgiSGzW3N-3" target="gcg96TqwbtlWgiSGzW3N-1" edge="1">
          <mxGeometry relative="1" as="geometry" />
        </mxCell>
        <mxCell id="gcg96TqwbtlWgiSGzW3N-8" value="成功" style="edgeLabel;html=1;align=center;verticalAlign=middle;resizable=0;points=[];" parent="gcg96TqwbtlWgiSGzW3N-7" vertex="1" connectable="0">
          <mxGeometry x="0.1333" y="1" relative="1" as="geometry">
            <mxPoint as="offset" />
          </mxGeometry>
        </mxCell>
        <mxCell id="gcg96TqwbtlWgiSGzW3N-16" style="edgeStyle=orthogonalEdgeStyle;rounded=0;orthogonalLoop=1;jettySize=auto;html=1;exitX=1;exitY=0.5;exitDx=0;exitDy=0;entryX=0;entryY=0.5;entryDx=0;entryDy=0;" parent="WIyWlLk6GJQsqaUBKTNV-1" source="gcg96TqwbtlWgiSGzW3N-3" target="gcg96TqwbtlWgiSGzW3N-15" edge="1">
          <mxGeometry relative="1" as="geometry" />
        </mxCell>
        <mxCell id="gcg96TqwbtlWgiSGzW3N-18" value="否" style="edgeLabel;html=1;align=center;verticalAlign=middle;resizable=0;points=[];" parent="gcg96TqwbtlWgiSGzW3N-16" vertex="1" connectable="0">
          <mxGeometry x="-0.05" y="2" relative="1" as="geometry">
            <mxPoint as="offset" />
          </mxGeometry>
        </mxCell>
        <mxCell id="gcg96TqwbtlWgiSGzW3N-3" value="登入" style="rhombus;whiteSpace=wrap;html=1;shadow=0;strokeWidth=1;spacing=6;spacingTop=-4;" parent="WIyWlLk6GJQsqaUBKTNV-1" vertex="1">
          <mxGeometry x="360" y="290" width="80" height="80" as="geometry" />
        </mxCell>
        <mxCell id="gcg96TqwbtlWgiSGzW3N-24" value="" style="edgeStyle=orthogonalEdgeStyle;rounded=0;orthogonalLoop=1;jettySize=auto;html=1;" parent="WIyWlLk6GJQsqaUBKTNV-1" source="gcg96TqwbtlWgiSGzW3N-9" target="gcg96TqwbtlWgiSGzW3N-23" edge="1">
          <mxGeometry relative="1" as="geometry" />
        </mxCell>
        <mxCell id="gcg96TqwbtlWgiSGzW3N-9" value="确定订单" style="whiteSpace=wrap;html=1;shadow=0;strokeWidth=1;spacing=6;spacingTop=-4;" parent="WIyWlLk6GJQsqaUBKTNV-1" vertex="1">
          <mxGeometry x="160" y="410" width="120" height="30" as="geometry" />
        </mxCell>
        <mxCell id="gcg96TqwbtlWgiSGzW3N-20" value="是" style="edgeStyle=orthogonalEdgeStyle;rounded=0;orthogonalLoop=1;jettySize=auto;html=1;" parent="WIyWlLk6GJQsqaUBKTNV-1" source="gcg96TqwbtlWgiSGzW3N-15" target="gcg96TqwbtlWgiSGzW3N-19" edge="1">
          <mxGeometry relative="1" as="geometry" />
        </mxCell>
        <mxCell id="gcg96TqwbtlWgiSGzW3N-22" value="否" style="edgeStyle=orthogonalEdgeStyle;rounded=0;orthogonalLoop=1;jettySize=auto;html=1;exitX=0.5;exitY=1;exitDx=0;exitDy=0;entryX=0.5;entryY=1;entryDx=0;entryDy=0;" parent="WIyWlLk6GJQsqaUBKTNV-1" source="gcg96TqwbtlWgiSGzW3N-15" target="gcg96TqwbtlWgiSGzW3N-3" edge="1">
          <mxGeometry relative="1" as="geometry" />
        </mxCell>
        <mxCell id="gcg96TqwbtlWgiSGzW3N-15" value="5次失败" style="rounded=1;whiteSpace=wrap;html=1;fontSize=12;glass=0;strokeWidth=1;shadow=0;" parent="WIyWlLk6GJQsqaUBKTNV-1" vertex="1">
          <mxGeometry x="480" y="310" width="120" height="40" as="geometry" />
        </mxCell>
        <mxCell id="gcg96TqwbtlWgiSGzW3N-21" style="edgeStyle=orthogonalEdgeStyle;rounded=0;orthogonalLoop=1;jettySize=auto;html=1;exitX=0.5;exitY=0;exitDx=0;exitDy=0;entryX=1;entryY=0.5;entryDx=0;entryDy=0;" parent="WIyWlLk6GJQsqaUBKTNV-1" source="gcg96TqwbtlWgiSGzW3N-19" target="WIyWlLk6GJQsqaUBKTNV-3" edge="1">
          <mxGeometry relative="1" as="geometry" />
        </mxCell>
        <mxCell id="gcg96TqwbtlWgiSGzW3N-19" value="账号锁死" style="whiteSpace=wrap;html=1;rounded=1;glass=0;strokeWidth=1;shadow=0;" parent="WIyWlLk6GJQsqaUBKTNV-1" vertex="1">
          <mxGeometry x="480" y="210" width="120" height="30" as="geometry" />
        </mxCell>
        <mxCell id="gcg96TqwbtlWgiSGzW3N-26" value="" style="edgeStyle=orthogonalEdgeStyle;rounded=0;orthogonalLoop=1;jettySize=auto;html=1;" parent="WIyWlLk6GJQsqaUBKTNV-1" source="gcg96TqwbtlWgiSGzW3N-23" target="gcg96TqwbtlWgiSGzW3N-25" edge="1">
          <mxGeometry relative="1" as="geometry" />
        </mxCell>
        <mxCell id="gcg96TqwbtlWgiSGzW3N-23" value="选择收获地址" style="whiteSpace=wrap;html=1;shadow=0;strokeWidth=1;spacing=6;spacingTop=-4;" parent="WIyWlLk6GJQsqaUBKTNV-1" vertex="1">
          <mxGeometry x="160" y="480" width="120" height="30" as="geometry" />
        </mxCell>
        <mxCell id="gcg96TqwbtlWgiSGzW3N-28" value="" style="edgeStyle=orthogonalEdgeStyle;rounded=0;orthogonalLoop=1;jettySize=auto;html=1;" parent="WIyWlLk6GJQsqaUBKTNV-1" source="gcg96TqwbtlWgiSGzW3N-25" target="gcg96TqwbtlWgiSGzW3N-27" edge="1">
          <mxGeometry relative="1" as="geometry" />
        </mxCell>
        <mxCell id="gcg96TqwbtlWgiSGzW3N-25" value="提交订单" style="whiteSpace=wrap;html=1;shadow=0;strokeWidth=1;spacing=6;spacingTop=-4;" parent="WIyWlLk6GJQsqaUBKTNV-1" vertex="1">
          <mxGeometry x="160" y="555" width="120" height="30" as="geometry" />
        </mxCell>
        <mxCell id="gcg96TqwbtlWgiSGzW3N-30" value="" style="edgeStyle=orthogonalEdgeStyle;rounded=0;orthogonalLoop=1;jettySize=auto;html=1;" parent="WIyWlLk6GJQsqaUBKTNV-1" source="gcg96TqwbtlWgiSGzW3N-27" edge="1">
          <mxGeometry relative="1" as="geometry">
            <mxPoint x="220" y="680" as="targetPoint" />
          </mxGeometry>
        </mxCell>
        <mxCell id="gcg96TqwbtlWgiSGzW3N-27" value="生成订单" style="whiteSpace=wrap;html=1;shadow=0;strokeWidth=1;spacing=6;spacingTop=-4;" parent="WIyWlLk6GJQsqaUBKTNV-1" vertex="1">
          <mxGeometry x="160" y="620" width="120" height="30" as="geometry" />
        </mxCell>
        <mxCell id="gcg96TqwbtlWgiSGzW3N-35" style="edgeStyle=orthogonalEdgeStyle;rounded=0;orthogonalLoop=1;jettySize=auto;html=1;exitX=1;exitY=0.5;exitDx=0;exitDy=0;entryX=0.5;entryY=0;entryDx=0;entryDy=0;" parent="WIyWlLk6GJQsqaUBKTNV-1" source="gcg96TqwbtlWgiSGzW3N-32" target="gcg96TqwbtlWgiSGzW3N-33" edge="1">
          <mxGeometry relative="1" as="geometry" />
        </mxCell>
        <mxCell id="gcg96TqwbtlWgiSGzW3N-44" value="支付成功" style="edgeLabel;html=1;align=center;verticalAlign=middle;resizable=0;points=[];" parent="gcg96TqwbtlWgiSGzW3N-35" vertex="1" connectable="0">
          <mxGeometry x="-0.049" y="-2" relative="1" as="geometry">
            <mxPoint as="offset" />
          </mxGeometry>
        </mxCell>
        <mxCell id="gcg96TqwbtlWgiSGzW3N-32" value="支付" style="rhombus;whiteSpace=wrap;html=1;shadow=0;fontFamily=Helvetica;fontSize=12;align=center;strokeWidth=1;spacing=6;spacingTop=-4;" parent="WIyWlLk6GJQsqaUBKTNV-1" vertex="1">
          <mxGeometry x="170" y="680" width="100" height="80" as="geometry" />
        </mxCell>
        <mxCell id="gcg96TqwbtlWgiSGzW3N-37" value="" style="edgeStyle=orthogonalEdgeStyle;rounded=0;orthogonalLoop=1;jettySize=auto;html=1;" parent="WIyWlLk6GJQsqaUBKTNV-1" source="gcg96TqwbtlWgiSGzW3N-33" target="gcg96TqwbtlWgiSGzW3N-36" edge="1">
          <mxGeometry relative="1" as="geometry" />
        </mxCell>
        <mxCell id="gcg96TqwbtlWgiSGzW3N-33" value="商店确定订单" style="whiteSpace=wrap;html=1;shadow=0;strokeWidth=1;spacing=6;spacingTop=-4;" parent="WIyWlLk6GJQsqaUBKTNV-1" vertex="1">
          <mxGeometry x="380" y="440" width="120" height="40" as="geometry" />
        </mxCell>
        <mxCell id="gcg96TqwbtlWgiSGzW3N-39" value="" style="edgeStyle=orthogonalEdgeStyle;rounded=0;orthogonalLoop=1;jettySize=auto;html=1;" parent="WIyWlLk6GJQsqaUBKTNV-1" source="gcg96TqwbtlWgiSGzW3N-36" target="gcg96TqwbtlWgiSGzW3N-38" edge="1">
          <mxGeometry relative="1" as="geometry" />
        </mxCell>
        <mxCell id="gcg96TqwbtlWgiSGzW3N-36" value="商家确认发货" style="rounded=1;whiteSpace=wrap;html=1;shadow=0;strokeWidth=1;spacing=6;spacingTop=-4;" parent="WIyWlLk6GJQsqaUBKTNV-1" vertex="1">
          <mxGeometry x="385" y="515" width="110" height="30" as="geometry" />
        </mxCell>
        <mxCell id="gcg96TqwbtlWgiSGzW3N-41" value="" style="edgeStyle=orthogonalEdgeStyle;rounded=0;orthogonalLoop=1;jettySize=auto;html=1;" parent="WIyWlLk6GJQsqaUBKTNV-1" source="gcg96TqwbtlWgiSGzW3N-38" target="gcg96TqwbtlWgiSGzW3N-40" edge="1">
          <mxGeometry relative="1" as="geometry" />
        </mxCell>
        <mxCell id="gcg96TqwbtlWgiSGzW3N-38" value="用户收货确认" style="whiteSpace=wrap;html=1;rounded=1;shadow=0;strokeWidth=1;spacing=6;spacingTop=-4;" parent="WIyWlLk6GJQsqaUBKTNV-1" vertex="1">
          <mxGeometry x="385" y="585" width="110" height="30" as="geometry" />
        </mxCell>
        <mxCell id="gcg96TqwbtlWgiSGzW3N-43" value="" style="edgeStyle=orthogonalEdgeStyle;rounded=0;orthogonalLoop=1;jettySize=auto;html=1;" parent="WIyWlLk6GJQsqaUBKTNV-1" source="gcg96TqwbtlWgiSGzW3N-40" target="gcg96TqwbtlWgiSGzW3N-42" edge="1">
          <mxGeometry relative="1" as="geometry" />
        </mxCell>
        <mxCell id="gcg96TqwbtlWgiSGzW3N-40" value="订单完成" style="rounded=1;whiteSpace=wrap;html=1;shadow=0;strokeWidth=1;spacing=6;spacingTop=-4;" parent="WIyWlLk6GJQsqaUBKTNV-1" vertex="1">
          <mxGeometry x="385" y="650" width="110" height="30" as="geometry" />
        </mxCell>
        <mxCell id="gcg96TqwbtlWgiSGzW3N-42" value="结束" style="rounded=1;whiteSpace=wrap;html=1;shadow=0;strokeWidth=1;spacing=6;spacingTop=-4;" parent="WIyWlLk6GJQsqaUBKTNV-1" vertex="1">
          <mxGeometry x="382.5" y="730" width="115" height="40" as="geometry" />
        </mxCell>
        <mxCell id="gcg96TqwbtlWgiSGzW3N-47" value="" style="edgeStyle=orthogonalEdgeStyle;rounded=0;orthogonalLoop=1;jettySize=auto;html=1;" parent="WIyWlLk6GJQsqaUBKTNV-1" source="gcg96TqwbtlWgiSGzW3N-45" target="gcg96TqwbtlWgiSGzW3N-46" edge="1">
          <mxGeometry relative="1" as="geometry" />
        </mxCell>
        <mxCell id="gcg96TqwbtlWgiSGzW3N-45" value="开始" style="rounded=1;whiteSpace=wrap;html=1;fontSize=12;glass=0;strokeWidth=1;shadow=0;" parent="WIyWlLk6GJQsqaUBKTNV-1" vertex="1">
          <mxGeometry x="320" y="1100" width="120" height="40" as="geometry" />
        </mxCell>
        <mxCell id="gcg96TqwbtlWgiSGzW3N-48" value="失败" style="edgeStyle=orthogonalEdgeStyle;rounded=0;orthogonalLoop=1;jettySize=auto;html=1;exitX=1;exitY=0.5;exitDx=0;exitDy=0;entryX=1;entryY=0.5;entryDx=0;entryDy=0;" parent="WIyWlLk6GJQsqaUBKTNV-1" source="gcg96TqwbtlWgiSGzW3N-46" target="gcg96TqwbtlWgiSGzW3N-45" edge="1">
          <mxGeometry relative="1" as="geometry">
            <mxPoint x="450" y="1120" as="targetPoint" />
            <Array as="points">
              <mxPoint x="500" y="1240" />
              <mxPoint x="500" y="1120" />
            </Array>
          </mxGeometry>
        </mxCell>
        <mxCell id="gcg96TqwbtlWgiSGzW3N-53" style="edgeStyle=orthogonalEdgeStyle;rounded=0;orthogonalLoop=1;jettySize=auto;html=1;exitX=0.5;exitY=1;exitDx=0;exitDy=0;entryX=0.5;entryY=0;entryDx=0;entryDy=0;" parent="WIyWlLk6GJQsqaUBKTNV-1" source="gcg96TqwbtlWgiSGzW3N-46" target="gcg96TqwbtlWgiSGzW3N-51" edge="1">
          <mxGeometry relative="1" as="geometry" />
        </mxCell>
        <mxCell id="gcg96TqwbtlWgiSGzW3N-46" value="登入" style="rhombus;whiteSpace=wrap;html=1;rounded=1;glass=0;strokeWidth=1;shadow=0;" parent="WIyWlLk6GJQsqaUBKTNV-1" vertex="1">
          <mxGeometry x="340" y="1200" width="80" height="80" as="geometry" />
        </mxCell>
        <mxCell id="gcg96TqwbtlWgiSGzW3N-65" value="" style="edgeStyle=orthogonalEdgeStyle;rounded=0;orthogonalLoop=1;jettySize=auto;html=1;" parent="WIyWlLk6GJQsqaUBKTNV-1" source="gcg96TqwbtlWgiSGzW3N-51" target="gcg96TqwbtlWgiSGzW3N-54" edge="1">
          <mxGeometry relative="1" as="geometry" />
        </mxCell>
        <mxCell id="gcg96TqwbtlWgiSGzW3N-51" value="确定收货" style="rounded=1;whiteSpace=wrap;html=1;fontSize=12;glass=0;strokeWidth=1;shadow=0;" parent="WIyWlLk6GJQsqaUBKTNV-1" vertex="1">
          <mxGeometry x="320" y="1310" width="120" height="40" as="geometry" />
        </mxCell>
        <mxCell id="gcg96TqwbtlWgiSGzW3N-56" value="" style="edgeStyle=orthogonalEdgeStyle;rounded=0;orthogonalLoop=1;jettySize=auto;html=1;" parent="WIyWlLk6GJQsqaUBKTNV-1" source="gcg96TqwbtlWgiSGzW3N-54" target="gcg96TqwbtlWgiSGzW3N-55" edge="1">
          <mxGeometry relative="1" as="geometry" />
        </mxCell>
        <mxCell id="gcg96TqwbtlWgiSGzW3N-58" value="" style="edgeStyle=orthogonalEdgeStyle;rounded=0;orthogonalLoop=1;jettySize=auto;html=1;" parent="WIyWlLk6GJQsqaUBKTNV-1" source="gcg96TqwbtlWgiSGzW3N-54" edge="1">
          <mxGeometry relative="1" as="geometry">
            <mxPoint x="445" y="1470" as="targetPoint" />
            <Array as="points">
              <mxPoint x="380" y="1450" />
              <mxPoint x="445" y="1450" />
            </Array>
          </mxGeometry>
        </mxCell>
        <mxCell id="gcg96TqwbtlWgiSGzW3N-54" value="评论管理" style="rounded=1;whiteSpace=wrap;html=1;fontSize=12;glass=0;strokeWidth=1;shadow=0;" parent="WIyWlLk6GJQsqaUBKTNV-1" vertex="1">
          <mxGeometry x="320" y="1390" width="120" height="40" as="geometry" />
        </mxCell>
        <mxCell id="gcg96TqwbtlWgiSGzW3N-62" value="" style="edgeStyle=orthogonalEdgeStyle;rounded=0;orthogonalLoop=1;jettySize=auto;html=1;" parent="WIyWlLk6GJQsqaUBKTNV-1" source="gcg96TqwbtlWgiSGzW3N-55" target="gcg96TqwbtlWgiSGzW3N-61" edge="1">
          <mxGeometry relative="1" as="geometry" />
        </mxCell>
        <mxCell id="gcg96TqwbtlWgiSGzW3N-55" value="查看评论" style="rounded=1;whiteSpace=wrap;html=1;glass=0;strokeWidth=1;shadow=0;" parent="WIyWlLk6GJQsqaUBKTNV-1" vertex="1">
          <mxGeometry x="270" y="1470" width="70" height="60" as="geometry" />
        </mxCell>
        <mxCell id="gcg96TqwbtlWgiSGzW3N-60" style="edgeStyle=orthogonalEdgeStyle;rounded=0;orthogonalLoop=1;jettySize=auto;html=1;exitX=1;exitY=0.5;exitDx=0;exitDy=0;entryX=1;entryY=0.5;entryDx=0;entryDy=0;" parent="WIyWlLk6GJQsqaUBKTNV-1" source="gcg96TqwbtlWgiSGzW3N-59" target="gcg96TqwbtlWgiSGzW3N-54" edge="1">
          <mxGeometry relative="1" as="geometry" />
        </mxCell>
        <mxCell id="gcg96TqwbtlWgiSGzW3N-66" value="成功" style="edgeLabel;html=1;align=center;verticalAlign=middle;resizable=0;points=[];" parent="gcg96TqwbtlWgiSGzW3N-60" vertex="1" connectable="0">
          <mxGeometry x="-0.0909" relative="1" as="geometry">
            <mxPoint as="offset" />
          </mxGeometry>
        </mxCell>
        <mxCell id="gcg96TqwbtlWgiSGzW3N-59" value="删除评论" style="rounded=1;whiteSpace=wrap;html=1;glass=0;strokeWidth=1;shadow=0;" parent="WIyWlLk6GJQsqaUBKTNV-1" vertex="1">
          <mxGeometry x="405" y="1470" width="70" height="60" as="geometry" />
        </mxCell>
        <mxCell id="gcg96TqwbtlWgiSGzW3N-63" style="edgeStyle=orthogonalEdgeStyle;rounded=0;orthogonalLoop=1;jettySize=auto;html=1;exitX=0;exitY=0.5;exitDx=0;exitDy=0;entryX=0;entryY=0.5;entryDx=0;entryDy=0;" parent="WIyWlLk6GJQsqaUBKTNV-1" source="gcg96TqwbtlWgiSGzW3N-61" target="gcg96TqwbtlWgiSGzW3N-54" edge="1">
          <mxGeometry relative="1" as="geometry" />
        </mxCell>
        <mxCell id="gcg96TqwbtlWgiSGzW3N-64" value="返回" style="edgeLabel;html=1;align=center;verticalAlign=middle;resizable=0;points=[];" parent="gcg96TqwbtlWgiSGzW3N-63" vertex="1" connectable="0">
          <mxGeometry x="0.117" y="-2" relative="1" as="geometry">
            <mxPoint as="offset" />
          </mxGeometry>
        </mxCell>
        <mxCell id="gcg96TqwbtlWgiSGzW3N-61" value="现实评论" style="rounded=1;whiteSpace=wrap;html=1;glass=0;strokeWidth=1;shadow=0;" parent="WIyWlLk6GJQsqaUBKTNV-1" vertex="1">
          <mxGeometry x="270" y="1570" width="70" height="30" as="geometry" />
        </mxCell>
        <mxCell id="gcg96TqwbtlWgiSGzW3N-69" style="edgeStyle=orthogonalEdgeStyle;rounded=0;orthogonalLoop=1;jettySize=auto;html=1;exitX=0.5;exitY=1;exitDx=0;exitDy=0;" parent="WIyWlLk6GJQsqaUBKTNV-1" source="gcg96TqwbtlWgiSGzW3N-67" target="gcg96TqwbtlWgiSGzW3N-68" edge="1">
          <mxGeometry relative="1" as="geometry" />
        </mxCell>
        <mxCell id="gcg96TqwbtlWgiSGzW3N-67" value="管理员" style="rounded=1;whiteSpace=wrap;html=1;fontSize=12;glass=0;strokeWidth=1;shadow=0;" parent="WIyWlLk6GJQsqaUBKTNV-1" vertex="1">
          <mxGeometry x="750" y="1169" width="120" height="40" as="geometry" />
        </mxCell>
        <mxCell id="gcg96TqwbtlWgiSGzW3N-70" style="edgeStyle=orthogonalEdgeStyle;rounded=0;orthogonalLoop=1;jettySize=auto;html=1;exitX=1;exitY=0.5;exitDx=0;exitDy=0;entryX=1;entryY=0.5;entryDx=0;entryDy=0;" parent="WIyWlLk6GJQsqaUBKTNV-1" source="gcg96TqwbtlWgiSGzW3N-68" target="gcg96TqwbtlWgiSGzW3N-67" edge="1">
          <mxGeometry relative="1" as="geometry">
            <Array as="points">
              <mxPoint x="900" y="1285" />
              <mxPoint x="900" y="1189" />
            </Array>
          </mxGeometry>
        </mxCell>
        <mxCell id="gcg96TqwbtlWgiSGzW3N-71" value="否" style="edgeLabel;html=1;align=center;verticalAlign=middle;resizable=0;points=[];" parent="gcg96TqwbtlWgiSGzW3N-70" vertex="1" connectable="0">
          <mxGeometry x="0.1375" y="-2" relative="1" as="geometry">
            <mxPoint as="offset" />
          </mxGeometry>
        </mxCell>
        <mxCell id="gcg96TqwbtlWgiSGzW3N-73" value="" style="edgeStyle=orthogonalEdgeStyle;rounded=0;orthogonalLoop=1;jettySize=auto;html=1;" parent="WIyWlLk6GJQsqaUBKTNV-1" source="gcg96TqwbtlWgiSGzW3N-68" target="gcg96TqwbtlWgiSGzW3N-72" edge="1">
          <mxGeometry relative="1" as="geometry" />
        </mxCell>
        <mxCell id="gcg96TqwbtlWgiSGzW3N-68" value="登入" style="rhombus;whiteSpace=wrap;html=1;rounded=1;glass=0;strokeWidth=1;shadow=0;" parent="WIyWlLk6GJQsqaUBKTNV-1" vertex="1">
          <mxGeometry x="765" y="1250" width="90" height="70" as="geometry" />
        </mxCell>
        <mxCell id="gcg96TqwbtlWgiSGzW3N-75" value="" style="edgeStyle=orthogonalEdgeStyle;rounded=0;orthogonalLoop=1;jettySize=auto;html=1;" parent="WIyWlLk6GJQsqaUBKTNV-1" source="gcg96TqwbtlWgiSGzW3N-72" target="gcg96TqwbtlWgiSGzW3N-74" edge="1">
          <mxGeometry relative="1" as="geometry" />
        </mxCell>
        <mxCell id="gcg96TqwbtlWgiSGzW3N-72" value="&lt;div style=&quot;text-align: justify&quot;&gt;&lt;span&gt;商品信息管理&lt;/span&gt;&lt;/div&gt;&lt;div style=&quot;text-align: justify&quot;&gt;&lt;span&gt;1. 新增销售商品&lt;/span&gt;&lt;/div&gt;&lt;div style=&quot;text-align: justify&quot;&gt;&lt;span&gt;2. 删除销售商品&lt;/span&gt;&lt;/div&gt;&lt;div style=&quot;text-align: justify&quot;&gt;&lt;span&gt;3. 修改销售商品&lt;/span&gt;&lt;/div&gt;&lt;div style=&quot;text-align: justify&quot;&gt;&lt;span&gt;4. 查看商品详情&lt;/span&gt;&lt;/div&gt;" style="rounded=1;whiteSpace=wrap;html=1;glass=0;strokeWidth=1;shadow=0;align=left;" parent="WIyWlLk6GJQsqaUBKTNV-1" vertex="1">
          <mxGeometry x="744.5" y="1340" width="131" height="100" as="geometry" />
        </mxCell>
        <mxCell id="gcg96TqwbtlWgiSGzW3N-76" style="edgeStyle=orthogonalEdgeStyle;rounded=0;orthogonalLoop=1;jettySize=auto;html=1;exitX=0;exitY=0.5;exitDx=0;exitDy=0;entryX=0;entryY=0.5;entryDx=0;entryDy=0;" parent="WIyWlLk6GJQsqaUBKTNV-1" source="gcg96TqwbtlWgiSGzW3N-74" target="gcg96TqwbtlWgiSGzW3N-72" edge="1">
          <mxGeometry relative="1" as="geometry" />
        </mxCell>
        <mxCell id="gcg96TqwbtlWgiSGzW3N-81" value="失败" style="edgeLabel;html=1;align=center;verticalAlign=middle;resizable=0;points=[];" parent="gcg96TqwbtlWgiSGzW3N-76" vertex="1" connectable="0">
          <mxGeometry x="0.0332" y="-3" relative="1" as="geometry">
            <mxPoint x="1" as="offset" />
          </mxGeometry>
        </mxCell>
        <mxCell id="gcg96TqwbtlWgiSGzW3N-78" value="" style="edgeStyle=orthogonalEdgeStyle;rounded=0;orthogonalLoop=1;jettySize=auto;html=1;" parent="WIyWlLk6GJQsqaUBKTNV-1" source="gcg96TqwbtlWgiSGzW3N-74" target="gcg96TqwbtlWgiSGzW3N-77" edge="1">
          <mxGeometry relative="1" as="geometry" />
        </mxCell>
        <mxCell id="gcg96TqwbtlWgiSGzW3N-74" value="操作是否成功" style="rhombus;whiteSpace=wrap;html=1;align=center;rounded=1;glass=0;strokeWidth=1;shadow=0;" parent="WIyWlLk6GJQsqaUBKTNV-1" vertex="1">
          <mxGeometry x="750" y="1470" width="120" height="80" as="geometry" />
        </mxCell>
        <mxCell id="gcg96TqwbtlWgiSGzW3N-80" value="" style="edgeStyle=orthogonalEdgeStyle;rounded=0;orthogonalLoop=1;jettySize=auto;html=1;" parent="WIyWlLk6GJQsqaUBKTNV-1" source="gcg96TqwbtlWgiSGzW3N-77" target="gcg96TqwbtlWgiSGzW3N-79" edge="1">
          <mxGeometry relative="1" as="geometry" />
        </mxCell>
        <mxCell id="gcg96TqwbtlWgiSGzW3N-77" value="进行信息修改，添加或者删除" style="whiteSpace=wrap;html=1;rounded=1;glass=0;strokeWidth=1;shadow=0;" parent="WIyWlLk6GJQsqaUBKTNV-1" vertex="1">
          <mxGeometry x="755" y="1570" width="110" height="40" as="geometry" />
        </mxCell>
        <mxCell id="gcg96TqwbtlWgiSGzW3N-79" value="退出" style="ellipse;whiteSpace=wrap;html=1;rounded=1;glass=0;strokeWidth=1;shadow=0;" parent="WIyWlLk6GJQsqaUBKTNV-1" vertex="1">
          <mxGeometry x="755" y="1640" width="110" height="40" as="geometry" />
        </mxCell>
        <mxCell id="7PgOXvjgWC53uZLiy5cf-0" value="商品信息" style="rounded=1;whiteSpace=wrap;html=1;glass=0;strokeWidth=1;shadow=0;" vertex="1" parent="WIyWlLk6GJQsqaUBKTNV-1">
          <mxGeometry x="440" y="1960" width="70" height="30" as="geometry" />
        </mxCell>
        <mxCell id="7PgOXvjgWC53uZLiy5cf-14" style="edgeStyle=none;rounded=0;orthogonalLoop=1;jettySize=auto;html=1;exitX=1;exitY=0.5;exitDx=0;exitDy=0;entryX=0.5;entryY=0;entryDx=0;entryDy=0;" edge="1" parent="WIyWlLk6GJQsqaUBKTNV-1" source="7PgOXvjgWC53uZLiy5cf-1" target="7PgOXvjgWC53uZLiy5cf-0">
          <mxGeometry relative="1" as="geometry" />
        </mxCell>
        <mxCell id="7PgOXvjgWC53uZLiy5cf-1" value="商品id" style="ellipse;whiteSpace=wrap;html=1;" vertex="1" parent="WIyWlLk6GJQsqaUBKTNV-1">
          <mxGeometry x="260" y="1880" width="60" height="40" as="geometry" />
        </mxCell>
        <mxCell id="7PgOXvjgWC53uZLiy5cf-2" value="现实评论" style="rounded=1;whiteSpace=wrap;html=1;glass=0;strokeWidth=1;shadow=0;" vertex="1" parent="WIyWlLk6GJQsqaUBKTNV-1">
          <mxGeometry x="290" y="1590" width="70" height="30" as="geometry" />
        </mxCell>
        <mxCell id="7PgOXvjgWC53uZLiy5cf-15" style="edgeStyle=none;rounded=0;orthogonalLoop=1;jettySize=auto;html=1;exitX=1;exitY=1;exitDx=0;exitDy=0;entryX=0.5;entryY=0;entryDx=0;entryDy=0;" edge="1" parent="WIyWlLk6GJQsqaUBKTNV-1" source="7PgOXvjgWC53uZLiy5cf-3" target="7PgOXvjgWC53uZLiy5cf-0">
          <mxGeometry relative="1" as="geometry" />
        </mxCell>
        <mxCell id="7PgOXvjgWC53uZLiy5cf-3" value="商品名字" style="ellipse;whiteSpace=wrap;html=1;" vertex="1" parent="WIyWlLk6GJQsqaUBKTNV-1">
          <mxGeometry x="290" y="1820" width="60" height="40" as="geometry" />
        </mxCell>
        <mxCell id="7PgOXvjgWC53uZLiy5cf-16" style="edgeStyle=none;rounded=0;orthogonalLoop=1;jettySize=auto;html=1;exitX=1;exitY=1;exitDx=0;exitDy=0;" edge="1" parent="WIyWlLk6GJQsqaUBKTNV-1" source="7PgOXvjgWC53uZLiy5cf-5">
          <mxGeometry relative="1" as="geometry">
            <mxPoint x="480" y="1960" as="targetPoint" />
          </mxGeometry>
        </mxCell>
        <mxCell id="7PgOXvjgWC53uZLiy5cf-5" value="商品图片" style="ellipse;whiteSpace=wrap;html=1;" vertex="1" parent="WIyWlLk6GJQsqaUBKTNV-1">
          <mxGeometry x="330" y="1780" width="60" height="40" as="geometry" />
        </mxCell>
        <mxCell id="7PgOXvjgWC53uZLiy5cf-19" style="edgeStyle=none;rounded=0;orthogonalLoop=1;jettySize=auto;html=1;exitX=0.5;exitY=1;exitDx=0;exitDy=0;" edge="1" parent="WIyWlLk6GJQsqaUBKTNV-1" source="7PgOXvjgWC53uZLiy5cf-6">
          <mxGeometry relative="1" as="geometry">
            <mxPoint x="470" y="1960" as="targetPoint" />
          </mxGeometry>
        </mxCell>
        <mxCell id="7PgOXvjgWC53uZLiy5cf-6" value="商品介绍" style="ellipse;whiteSpace=wrap;html=1;" vertex="1" parent="WIyWlLk6GJQsqaUBKTNV-1">
          <mxGeometry x="530" y="1740" width="60" height="40" as="geometry" />
        </mxCell>
        <mxCell id="7PgOXvjgWC53uZLiy5cf-18" style="edgeStyle=none;rounded=0;orthogonalLoop=1;jettySize=auto;html=1;exitX=0.5;exitY=1;exitDx=0;exitDy=0;" edge="1" parent="WIyWlLk6GJQsqaUBKTNV-1" source="7PgOXvjgWC53uZLiy5cf-7">
          <mxGeometry relative="1" as="geometry">
            <mxPoint x="480" y="1960" as="targetPoint" />
          </mxGeometry>
        </mxCell>
        <mxCell id="7PgOXvjgWC53uZLiy5cf-7" value="商品详情" style="ellipse;whiteSpace=wrap;html=1;" vertex="1" parent="WIyWlLk6GJQsqaUBKTNV-1">
          <mxGeometry x="460" y="1740" width="60" height="40" as="geometry" />
        </mxCell>
        <mxCell id="7PgOXvjgWC53uZLiy5cf-17" style="edgeStyle=none;rounded=0;orthogonalLoop=1;jettySize=auto;html=1;exitX=0.5;exitY=1;exitDx=0;exitDy=0;" edge="1" parent="WIyWlLk6GJQsqaUBKTNV-1" source="7PgOXvjgWC53uZLiy5cf-8">
          <mxGeometry relative="1" as="geometry">
            <mxPoint x="480" y="1960" as="targetPoint" />
          </mxGeometry>
        </mxCell>
        <mxCell id="7PgOXvjgWC53uZLiy5cf-8" value="商品分类" style="ellipse;whiteSpace=wrap;html=1;" vertex="1" parent="WIyWlLk6GJQsqaUBKTNV-1">
          <mxGeometry x="385" y="1750" width="60" height="40" as="geometry" />
        </mxCell>
        <mxCell id="7PgOXvjgWC53uZLiy5cf-21" style="edgeStyle=none;rounded=0;orthogonalLoop=1;jettySize=auto;html=1;exitX=0;exitY=0.5;exitDx=0;exitDy=0;entryX=0.5;entryY=0;entryDx=0;entryDy=0;" edge="1" parent="WIyWlLk6GJQsqaUBKTNV-1" source="7PgOXvjgWC53uZLiy5cf-9" target="7PgOXvjgWC53uZLiy5cf-0">
          <mxGeometry relative="1" as="geometry" />
        </mxCell>
        <mxCell id="7PgOXvjgWC53uZLiy5cf-9" value="品牌商品" style="ellipse;whiteSpace=wrap;html=1;" vertex="1" parent="WIyWlLk6GJQsqaUBKTNV-1">
          <mxGeometry x="610" y="1830" width="60" height="40" as="geometry" />
        </mxCell>
        <mxCell id="7PgOXvjgWC53uZLiy5cf-20" style="edgeStyle=none;rounded=0;orthogonalLoop=1;jettySize=auto;html=1;exitX=0;exitY=1;exitDx=0;exitDy=0;" edge="1" parent="WIyWlLk6GJQsqaUBKTNV-1" source="7PgOXvjgWC53uZLiy5cf-10">
          <mxGeometry relative="1" as="geometry">
            <mxPoint x="480" y="1960" as="targetPoint" />
          </mxGeometry>
        </mxCell>
        <mxCell id="7PgOXvjgWC53uZLiy5cf-10" value="商品标签" style="ellipse;whiteSpace=wrap;html=1;" vertex="1" parent="WIyWlLk6GJQsqaUBKTNV-1">
          <mxGeometry x="590" y="1780" width="60" height="40" as="geometry" />
        </mxCell>
        <mxCell id="7PgOXvjgWC53uZLiy5cf-22" style="edgeStyle=none;rounded=0;orthogonalLoop=1;jettySize=auto;html=1;exitX=0;exitY=0.5;exitDx=0;exitDy=0;" edge="1" parent="WIyWlLk6GJQsqaUBKTNV-1" source="7PgOXvjgWC53uZLiy5cf-12">
          <mxGeometry relative="1" as="geometry">
            <mxPoint x="480" y="1960" as="targetPoint" />
          </mxGeometry>
        </mxCell>
        <mxCell id="7PgOXvjgWC53uZLiy5cf-12" value="商品sku" style="ellipse;whiteSpace=wrap;html=1;" vertex="1" parent="WIyWlLk6GJQsqaUBKTNV-1">
          <mxGeometry x="610" y="1880" width="60" height="40" as="geometry" />
        </mxCell>
        <mxCell id="7PgOXvjgWC53uZLiy5cf-23" value="订单信息" style="rounded=1;whiteSpace=wrap;html=1;glass=0;strokeWidth=1;shadow=0;" vertex="1" parent="WIyWlLk6GJQsqaUBKTNV-1">
          <mxGeometry x="1160" y="2190" width="70" height="30" as="geometry" />
        </mxCell>
        <mxCell id="7PgOXvjgWC53uZLiy5cf-33" style="edgeStyle=none;rounded=0;orthogonalLoop=1;jettySize=auto;html=1;exitX=1;exitY=0.5;exitDx=0;exitDy=0;entryX=0.5;entryY=0;entryDx=0;entryDy=0;" edge="1" parent="WIyWlLk6GJQsqaUBKTNV-1" source="7PgOXvjgWC53uZLiy5cf-25" target="7PgOXvjgWC53uZLiy5cf-23">
          <mxGeometry relative="1" as="geometry" />
        </mxCell>
        <mxCell id="7PgOXvjgWC53uZLiy5cf-25" value="订单id" style="ellipse;whiteSpace=wrap;html=1;" vertex="1" parent="WIyWlLk6GJQsqaUBKTNV-1">
          <mxGeometry x="990" y="2120" width="60" height="40" as="geometry" />
        </mxCell>
        <mxCell id="7PgOXvjgWC53uZLiy5cf-34" style="edgeStyle=none;rounded=0;orthogonalLoop=1;jettySize=auto;html=1;exitX=1;exitY=0.5;exitDx=0;exitDy=0;entryX=0.5;entryY=0;entryDx=0;entryDy=0;" edge="1" parent="WIyWlLk6GJQsqaUBKTNV-1" source="7PgOXvjgWC53uZLiy5cf-26" target="7PgOXvjgWC53uZLiy5cf-23">
          <mxGeometry relative="1" as="geometry" />
        </mxCell>
        <mxCell id="7PgOXvjgWC53uZLiy5cf-26" value="用户id" style="ellipse;whiteSpace=wrap;html=1;" vertex="1" parent="WIyWlLk6GJQsqaUBKTNV-1">
          <mxGeometry x="1030" y="2080" width="60" height="40" as="geometry" />
        </mxCell>
        <mxCell id="7PgOXvjgWC53uZLiy5cf-36" style="edgeStyle=none;rounded=0;orthogonalLoop=1;jettySize=auto;html=1;exitX=1;exitY=1;exitDx=0;exitDy=0;entryX=0.5;entryY=0;entryDx=0;entryDy=0;" edge="1" parent="WIyWlLk6GJQsqaUBKTNV-1" source="7PgOXvjgWC53uZLiy5cf-27" target="7PgOXvjgWC53uZLiy5cf-23">
          <mxGeometry relative="1" as="geometry" />
        </mxCell>
        <mxCell id="7PgOXvjgWC53uZLiy5cf-27" value="订单状态" style="ellipse;whiteSpace=wrap;html=1;" vertex="1" parent="WIyWlLk6GJQsqaUBKTNV-1">
          <mxGeometry x="1070" y="2030" width="60" height="40" as="geometry" />
        </mxCell>
        <mxCell id="7PgOXvjgWC53uZLiy5cf-37" style="edgeStyle=none;rounded=0;orthogonalLoop=1;jettySize=auto;html=1;exitX=0.5;exitY=1;exitDx=0;exitDy=0;" edge="1" parent="WIyWlLk6GJQsqaUBKTNV-1" source="7PgOXvjgWC53uZLiy5cf-28">
          <mxGeometry relative="1" as="geometry">
            <mxPoint x="1190" y="2190" as="targetPoint" />
          </mxGeometry>
        </mxCell>
        <mxCell id="7PgOXvjgWC53uZLiy5cf-28" value="商品名字" style="ellipse;whiteSpace=wrap;html=1;" vertex="1" parent="WIyWlLk6GJQsqaUBKTNV-1">
          <mxGeometry x="1140" y="2010" width="60" height="40" as="geometry" />
        </mxCell>
        <mxCell id="7PgOXvjgWC53uZLiy5cf-38" style="edgeStyle=none;rounded=0;orthogonalLoop=1;jettySize=auto;html=1;exitX=0.5;exitY=1;exitDx=0;exitDy=0;" edge="1" parent="WIyWlLk6GJQsqaUBKTNV-1" source="7PgOXvjgWC53uZLiy5cf-29">
          <mxGeometry relative="1" as="geometry">
            <mxPoint x="1190" y="2190" as="targetPoint" />
          </mxGeometry>
        </mxCell>
        <mxCell id="7PgOXvjgWC53uZLiy5cf-29" value="商品数量" style="ellipse;whiteSpace=wrap;html=1;" vertex="1" parent="WIyWlLk6GJQsqaUBKTNV-1">
          <mxGeometry x="1220" y="2000" width="60" height="40" as="geometry" />
        </mxCell>
        <mxCell id="7PgOXvjgWC53uZLiy5cf-39" style="edgeStyle=none;rounded=0;orthogonalLoop=1;jettySize=auto;html=1;exitX=0;exitY=1;exitDx=0;exitDy=0;" edge="1" parent="WIyWlLk6GJQsqaUBKTNV-1" source="7PgOXvjgWC53uZLiy5cf-30">
          <mxGeometry relative="1" as="geometry">
            <mxPoint x="1190" y="2190" as="targetPoint" />
          </mxGeometry>
        </mxCell>
        <mxCell id="7PgOXvjgWC53uZLiy5cf-30" value="商品价格" style="ellipse;whiteSpace=wrap;html=1;" vertex="1" parent="WIyWlLk6GJQsqaUBKTNV-1">
          <mxGeometry x="1290" y="2030" width="60" height="40" as="geometry" />
        </mxCell>
        <mxCell id="7PgOXvjgWC53uZLiy5cf-40" style="edgeStyle=none;rounded=0;orthogonalLoop=1;jettySize=auto;html=1;exitX=0;exitY=1;exitDx=0;exitDy=0;" edge="1" parent="WIyWlLk6GJQsqaUBKTNV-1" source="7PgOXvjgWC53uZLiy5cf-31">
          <mxGeometry relative="1" as="geometry">
            <mxPoint x="1190" y="2190" as="targetPoint" />
          </mxGeometry>
        </mxCell>
        <mxCell id="7PgOXvjgWC53uZLiy5cf-31" value="收获地址" style="ellipse;whiteSpace=wrap;html=1;" vertex="1" parent="WIyWlLk6GJQsqaUBKTNV-1">
          <mxGeometry x="1310" y="2070" width="60" height="40" as="geometry" />
        </mxCell>
        <mxCell id="7PgOXvjgWC53uZLiy5cf-41" style="edgeStyle=none;rounded=0;orthogonalLoop=1;jettySize=auto;html=1;exitX=0;exitY=1;exitDx=0;exitDy=0;entryX=0.5;entryY=0;entryDx=0;entryDy=0;" edge="1" parent="WIyWlLk6GJQsqaUBKTNV-1" source="7PgOXvjgWC53uZLiy5cf-32" target="7PgOXvjgWC53uZLiy5cf-23">
          <mxGeometry relative="1" as="geometry" />
        </mxCell>
        <mxCell id="7PgOXvjgWC53uZLiy5cf-32" value="商品属性" style="ellipse;whiteSpace=wrap;html=1;" vertex="1" parent="WIyWlLk6GJQsqaUBKTNV-1">
          <mxGeometry x="1340" y="2120" width="60" height="40" as="geometry" />
        </mxCell>
        <mxCell id="7PgOXvjgWC53uZLiy5cf-93" value="" style="edgeStyle=none;rounded=0;orthogonalLoop=1;jettySize=auto;html=1;" edge="1" parent="WIyWlLk6GJQsqaUBKTNV-1" source="7PgOXvjgWC53uZLiy5cf-44" target="7PgOXvjgWC53uZLiy5cf-92">
          <mxGeometry relative="1" as="geometry" />
        </mxCell>
        <mxCell id="7PgOXvjgWC53uZLiy5cf-112" style="edgeStyle=none;rounded=0;orthogonalLoop=1;jettySize=auto;html=1;exitX=0;exitY=0;exitDx=0;exitDy=0;entryX=1;entryY=0.5;entryDx=0;entryDy=0;" edge="1" parent="WIyWlLk6GJQsqaUBKTNV-1" source="7PgOXvjgWC53uZLiy5cf-44" target="7PgOXvjgWC53uZLiy5cf-110">
          <mxGeometry relative="1" as="geometry" />
        </mxCell>
        <mxCell id="7PgOXvjgWC53uZLiy5cf-44" value="管理员" style="rounded=1;whiteSpace=wrap;html=1;glass=0;strokeWidth=1;shadow=0;" vertex="1" parent="WIyWlLk6GJQsqaUBKTNV-1">
          <mxGeometry x="1250" y="2420" width="70" height="30" as="geometry" />
        </mxCell>
        <mxCell id="7PgOXvjgWC53uZLiy5cf-119" style="edgeStyle=none;rounded=0;orthogonalLoop=1;jettySize=auto;html=1;exitX=0.5;exitY=1;exitDx=0;exitDy=0;entryX=0.5;entryY=0;entryDx=0;entryDy=0;" edge="1" parent="WIyWlLk6GJQsqaUBKTNV-1" source="7PgOXvjgWC53uZLiy5cf-45" target="7PgOXvjgWC53uZLiy5cf-47">
          <mxGeometry relative="1" as="geometry" />
        </mxCell>
        <mxCell id="7PgOXvjgWC53uZLiy5cf-45" value="购买" style="rounded=1;whiteSpace=wrap;html=1;glass=0;strokeWidth=1;shadow=0;" vertex="1" parent="WIyWlLk6GJQsqaUBKTNV-1">
          <mxGeometry x="855" y="2280" width="70" height="30" as="geometry" />
        </mxCell>
        <mxCell id="7PgOXvjgWC53uZLiy5cf-89" style="edgeStyle=none;rounded=0;orthogonalLoop=1;jettySize=auto;html=1;exitX=0.5;exitY=1;exitDx=0;exitDy=0;" edge="1" parent="WIyWlLk6GJQsqaUBKTNV-1" source="7PgOXvjgWC53uZLiy5cf-46" target="7PgOXvjgWC53uZLiy5cf-45">
          <mxGeometry relative="1" as="geometry" />
        </mxCell>
        <mxCell id="7PgOXvjgWC53uZLiy5cf-105" style="edgeStyle=none;rounded=0;orthogonalLoop=1;jettySize=auto;html=1;exitX=1;exitY=0.5;exitDx=0;exitDy=0;entryX=0.088;entryY=0.578;entryDx=0;entryDy=0;entryPerimeter=0;" edge="1" parent="WIyWlLk6GJQsqaUBKTNV-1" source="7PgOXvjgWC53uZLiy5cf-46" target="7PgOXvjgWC53uZLiy5cf-104">
          <mxGeometry relative="1" as="geometry" />
        </mxCell>
        <mxCell id="7PgOXvjgWC53uZLiy5cf-46" value="用户" style="rounded=1;whiteSpace=wrap;html=1;glass=0;strokeWidth=1;shadow=0;" vertex="1" parent="WIyWlLk6GJQsqaUBKTNV-1">
          <mxGeometry x="855" y="2210" width="65" height="30" as="geometry" />
        </mxCell>
        <mxCell id="7PgOXvjgWC53uZLiy5cf-90" style="edgeStyle=none;rounded=0;orthogonalLoop=1;jettySize=auto;html=1;exitX=0.5;exitY=0;exitDx=0;exitDy=0;entryX=0.5;entryY=1;entryDx=0;entryDy=0;" edge="1" parent="WIyWlLk6GJQsqaUBKTNV-1" source="7PgOXvjgWC53uZLiy5cf-47" target="7PgOXvjgWC53uZLiy5cf-45">
          <mxGeometry relative="1" as="geometry" />
        </mxCell>
        <mxCell id="7PgOXvjgWC53uZLiy5cf-47" value="商品" style="rounded=1;whiteSpace=wrap;html=1;glass=0;strokeWidth=1;shadow=0;" vertex="1" parent="WIyWlLk6GJQsqaUBKTNV-1">
          <mxGeometry x="855" y="2370" width="70" height="30" as="geometry" />
        </mxCell>
        <mxCell id="7PgOXvjgWC53uZLiy5cf-49" style="edgeStyle=none;rounded=0;orthogonalLoop=1;jettySize=auto;html=1;exitX=1;exitY=0.5;exitDx=0;exitDy=0;entryX=0.5;entryY=0;entryDx=0;entryDy=0;" edge="1" parent="WIyWlLk6GJQsqaUBKTNV-1" source="7PgOXvjgWC53uZLiy5cf-50">
          <mxGeometry relative="1" as="geometry">
            <mxPoint x="886.5679269490147" y="2399.997828430524" as="targetPoint" />
          </mxGeometry>
        </mxCell>
        <mxCell id="7PgOXvjgWC53uZLiy5cf-50" value="商品id" style="ellipse;whiteSpace=wrap;html=1;" vertex="1" parent="WIyWlLk6GJQsqaUBKTNV-1">
          <mxGeometry x="635" y="2480.08" width="60" height="40" as="geometry" />
        </mxCell>
        <mxCell id="7PgOXvjgWC53uZLiy5cf-51" style="edgeStyle=none;rounded=0;orthogonalLoop=1;jettySize=auto;html=1;exitX=1;exitY=1;exitDx=0;exitDy=0;entryX=0.5;entryY=0;entryDx=0;entryDy=0;" edge="1" parent="WIyWlLk6GJQsqaUBKTNV-1" source="7PgOXvjgWC53uZLiy5cf-52">
          <mxGeometry relative="1" as="geometry">
            <mxPoint x="886.5679269490147" y="2399.997828430524" as="targetPoint" />
          </mxGeometry>
        </mxCell>
        <mxCell id="7PgOXvjgWC53uZLiy5cf-52" value="商品名字" style="ellipse;whiteSpace=wrap;html=1;" vertex="1" parent="WIyWlLk6GJQsqaUBKTNV-1">
          <mxGeometry x="670" y="2520.08" width="60" height="40" as="geometry" />
        </mxCell>
        <mxCell id="7PgOXvjgWC53uZLiy5cf-53" style="edgeStyle=none;rounded=0;orthogonalLoop=1;jettySize=auto;html=1;exitX=1;exitY=1;exitDx=0;exitDy=0;" edge="1" parent="WIyWlLk6GJQsqaUBKTNV-1" source="7PgOXvjgWC53uZLiy5cf-54">
          <mxGeometry relative="1" as="geometry">
            <mxPoint x="886" y="2400.08" as="targetPoint" />
          </mxGeometry>
        </mxCell>
        <mxCell id="7PgOXvjgWC53uZLiy5cf-54" value="商品图片" style="ellipse;whiteSpace=wrap;html=1;" vertex="1" parent="WIyWlLk6GJQsqaUBKTNV-1">
          <mxGeometry x="710" y="2560.08" width="60" height="40" as="geometry" />
        </mxCell>
        <mxCell id="7PgOXvjgWC53uZLiy5cf-55" style="edgeStyle=none;rounded=0;orthogonalLoop=1;jettySize=auto;html=1;exitX=0.5;exitY=1;exitDx=0;exitDy=0;" edge="1" parent="WIyWlLk6GJQsqaUBKTNV-1" source="7PgOXvjgWC53uZLiy5cf-56">
          <mxGeometry relative="1" as="geometry">
            <mxPoint x="876" y="2400.08" as="targetPoint" />
          </mxGeometry>
        </mxCell>
        <mxCell id="7PgOXvjgWC53uZLiy5cf-56" value="商品介绍" style="ellipse;whiteSpace=wrap;html=1;" vertex="1" parent="WIyWlLk6GJQsqaUBKTNV-1">
          <mxGeometry x="920" y="2590.08" width="60" height="40" as="geometry" />
        </mxCell>
        <mxCell id="7PgOXvjgWC53uZLiy5cf-57" style="edgeStyle=none;rounded=0;orthogonalLoop=1;jettySize=auto;html=1;exitX=0.5;exitY=1;exitDx=0;exitDy=0;" edge="1" parent="WIyWlLk6GJQsqaUBKTNV-1" source="7PgOXvjgWC53uZLiy5cf-58">
          <mxGeometry relative="1" as="geometry">
            <mxPoint x="886" y="2400.08" as="targetPoint" />
          </mxGeometry>
        </mxCell>
        <mxCell id="7PgOXvjgWC53uZLiy5cf-58" value="商品详情" style="ellipse;whiteSpace=wrap;html=1;" vertex="1" parent="WIyWlLk6GJQsqaUBKTNV-1">
          <mxGeometry x="840" y="2590.08" width="60" height="40" as="geometry" />
        </mxCell>
        <mxCell id="7PgOXvjgWC53uZLiy5cf-59" style="edgeStyle=none;rounded=0;orthogonalLoop=1;jettySize=auto;html=1;exitX=0.5;exitY=1;exitDx=0;exitDy=0;" edge="1" parent="WIyWlLk6GJQsqaUBKTNV-1" source="7PgOXvjgWC53uZLiy5cf-60">
          <mxGeometry relative="1" as="geometry">
            <mxPoint x="886" y="2400.08" as="targetPoint" />
            <Array as="points" />
          </mxGeometry>
        </mxCell>
        <mxCell id="7PgOXvjgWC53uZLiy5cf-60" value="商品分类" style="ellipse;whiteSpace=wrap;html=1;" vertex="1" parent="WIyWlLk6GJQsqaUBKTNV-1">
          <mxGeometry x="770" y="2590.08" width="60" height="40" as="geometry" />
        </mxCell>
        <mxCell id="7PgOXvjgWC53uZLiy5cf-61" style="edgeStyle=none;rounded=0;orthogonalLoop=1;jettySize=auto;html=1;exitX=0;exitY=0.5;exitDx=0;exitDy=0;entryX=0.5;entryY=0;entryDx=0;entryDy=0;" edge="1" parent="WIyWlLk6GJQsqaUBKTNV-1" source="7PgOXvjgWC53uZLiy5cf-62">
          <mxGeometry relative="1" as="geometry">
            <mxPoint x="886.5679269490147" y="2399.997828430524" as="targetPoint" />
          </mxGeometry>
        </mxCell>
        <mxCell id="7PgOXvjgWC53uZLiy5cf-62" value="品牌商品" style="ellipse;whiteSpace=wrap;html=1;" vertex="1" parent="WIyWlLk6GJQsqaUBKTNV-1">
          <mxGeometry x="1055" y="2560.08" width="60" height="40" as="geometry" />
        </mxCell>
        <mxCell id="7PgOXvjgWC53uZLiy5cf-63" style="edgeStyle=none;rounded=0;orthogonalLoop=1;jettySize=auto;html=1;exitX=0;exitY=1;exitDx=0;exitDy=0;" edge="1" parent="WIyWlLk6GJQsqaUBKTNV-1" source="7PgOXvjgWC53uZLiy5cf-64">
          <mxGeometry relative="1" as="geometry">
            <mxPoint x="895" y="2410.08" as="targetPoint" />
          </mxGeometry>
        </mxCell>
        <mxCell id="7PgOXvjgWC53uZLiy5cf-64" value="商品标签" style="ellipse;whiteSpace=wrap;html=1;" vertex="1" parent="WIyWlLk6GJQsqaUBKTNV-1">
          <mxGeometry x="980" y="2580.08" width="60" height="40" as="geometry" />
        </mxCell>
        <mxCell id="7PgOXvjgWC53uZLiy5cf-65" style="edgeStyle=none;rounded=0;orthogonalLoop=1;jettySize=auto;html=1;exitX=0;exitY=0.5;exitDx=0;exitDy=0;" edge="1" parent="WIyWlLk6GJQsqaUBKTNV-1" source="7PgOXvjgWC53uZLiy5cf-66">
          <mxGeometry relative="1" as="geometry">
            <mxPoint x="886" y="2400.08" as="targetPoint" />
          </mxGeometry>
        </mxCell>
        <mxCell id="7PgOXvjgWC53uZLiy5cf-66" value="商品sku" style="ellipse;whiteSpace=wrap;html=1;" vertex="1" parent="WIyWlLk6GJQsqaUBKTNV-1">
          <mxGeometry x="1085" y="2510.08" width="60" height="40" as="geometry" />
        </mxCell>
        <mxCell id="7PgOXvjgWC53uZLiy5cf-109" style="edgeStyle=none;rounded=0;orthogonalLoop=1;jettySize=auto;html=1;exitX=0;exitY=0.5;exitDx=0;exitDy=0;entryX=1;entryY=0.5;entryDx=0;entryDy=0;" edge="1" parent="WIyWlLk6GJQsqaUBKTNV-1" source="7PgOXvjgWC53uZLiy5cf-92" target="7PgOXvjgWC53uZLiy5cf-47">
          <mxGeometry relative="1" as="geometry" />
        </mxCell>
        <mxCell id="7PgOXvjgWC53uZLiy5cf-92" value="管理" style="rhombus;whiteSpace=wrap;html=1;rounded=1;glass=0;strokeWidth=1;shadow=0;" vertex="1" parent="WIyWlLk6GJQsqaUBKTNV-1">
          <mxGeometry x="1080" y="2405" width="75" height="45" as="geometry" />
        </mxCell>
        <mxCell id="7PgOXvjgWC53uZLiy5cf-117" style="edgeStyle=none;rounded=0;orthogonalLoop=1;jettySize=auto;html=1;exitX=0.5;exitY=0;exitDx=0;exitDy=0;" edge="1" parent="WIyWlLk6GJQsqaUBKTNV-1" source="7PgOXvjgWC53uZLiy5cf-95">
          <mxGeometry relative="1" as="geometry">
            <mxPoint x="1280" y="2450" as="targetPoint" />
          </mxGeometry>
        </mxCell>
        <mxCell id="7PgOXvjgWC53uZLiy5cf-95" value="角色&lt;span style=&quot;color: rgba(0 , 0 , 0 , 0) ; font-family: monospace ; font-size: 0px&quot;&gt;%3CmxGraphModel%3E%3Croot%3E%3CmxCell%20id%3D%220%22%2F%3E%3CmxCell%20id%3D%221%22%20parent%3D%220%22%2F%3E%3CmxCell%20id%3D%222%22%20value%3D%22%E5%95%86%E5%93%81id%22%20style%3D%22ellipse%3BwhiteSpace%3Dwrap%3Bhtml%3D1%3B%22%20vertex%3D%221%22%20parent%3D%221%22%3E%3CmxGeometry%20x%3D%22635%22%20y%3D%222480.08%22%20width%3D%2260%22%20height%3D%2240%22%20as%3D%22geometry%22%2F%3E%3C%2FmxCell%3E%3C%2Froot%3E%3C%2FmxGraphModel%3E&lt;/span&gt;" style="ellipse;whiteSpace=wrap;html=1;" vertex="1" parent="WIyWlLk6GJQsqaUBKTNV-1">
          <mxGeometry x="1330" y="2500.08" width="40" height="30" as="geometry" />
        </mxCell>
        <mxCell id="7PgOXvjgWC53uZLiy5cf-116" style="edgeStyle=none;rounded=0;orthogonalLoop=1;jettySize=auto;html=1;exitX=0.5;exitY=0;exitDx=0;exitDy=0;entryX=0.414;entryY=1;entryDx=0;entryDy=0;entryPerimeter=0;" edge="1" parent="WIyWlLk6GJQsqaUBKTNV-1" source="7PgOXvjgWC53uZLiy5cf-96" target="7PgOXvjgWC53uZLiy5cf-44">
          <mxGeometry relative="1" as="geometry" />
        </mxCell>
        <mxCell id="7PgOXvjgWC53uZLiy5cf-96" value="密码" style="ellipse;whiteSpace=wrap;html=1;" vertex="1" parent="WIyWlLk6GJQsqaUBKTNV-1">
          <mxGeometry x="1267.5" y="2530.08" width="35" height="30" as="geometry" />
        </mxCell>
        <mxCell id="7PgOXvjgWC53uZLiy5cf-115" style="edgeStyle=none;rounded=0;orthogonalLoop=1;jettySize=auto;html=1;exitX=0.5;exitY=0;exitDx=0;exitDy=0;" edge="1" parent="WIyWlLk6GJQsqaUBKTNV-1" source="7PgOXvjgWC53uZLiy5cf-100">
          <mxGeometry relative="1" as="geometry">
            <mxPoint x="1280" y="2460" as="targetPoint" />
          </mxGeometry>
        </mxCell>
        <mxCell id="7PgOXvjgWC53uZLiy5cf-100" value="用户名" style="ellipse;whiteSpace=wrap;html=1;" vertex="1" parent="WIyWlLk6GJQsqaUBKTNV-1">
          <mxGeometry x="1200" y="2530.08" width="44" height="30" as="geometry" />
        </mxCell>
        <mxCell id="7PgOXvjgWC53uZLiy5cf-114" style="edgeStyle=none;rounded=0;orthogonalLoop=1;jettySize=auto;html=1;exitX=1;exitY=0;exitDx=0;exitDy=0;entryX=0.5;entryY=1;entryDx=0;entryDy=0;" edge="1" parent="WIyWlLk6GJQsqaUBKTNV-1" source="7PgOXvjgWC53uZLiy5cf-101" target="7PgOXvjgWC53uZLiy5cf-44">
          <mxGeometry relative="1" as="geometry" />
        </mxCell>
        <mxCell id="7PgOXvjgWC53uZLiy5cf-101" value="编号" style="ellipse;whiteSpace=wrap;html=1;" vertex="1" parent="WIyWlLk6GJQsqaUBKTNV-1">
          <mxGeometry x="1185" y="2490.08" width="35" height="30" as="geometry" />
        </mxCell>
        <mxCell id="7PgOXvjgWC53uZLiy5cf-108" style="edgeStyle=none;rounded=0;orthogonalLoop=1;jettySize=auto;html=1;exitX=1;exitY=0.5;exitDx=0;exitDy=0;entryX=0;entryY=0.5;entryDx=0;entryDy=0;" edge="1" parent="WIyWlLk6GJQsqaUBKTNV-1" source="7PgOXvjgWC53uZLiy5cf-104" target="7PgOXvjgWC53uZLiy5cf-23">
          <mxGeometry relative="1" as="geometry" />
        </mxCell>
        <mxCell id="7PgOXvjgWC53uZLiy5cf-104" value="生成" style="rhombus;whiteSpace=wrap;html=1;rounded=1;glass=0;strokeWidth=1;shadow=0;" vertex="1" parent="WIyWlLk6GJQsqaUBKTNV-1">
          <mxGeometry x="970" y="2195" width="60" height="45" as="geometry" />
        </mxCell>
        <mxCell id="7PgOXvjgWC53uZLiy5cf-111" style="edgeStyle=none;rounded=0;orthogonalLoop=1;jettySize=auto;html=1;exitX=0;exitY=0.5;exitDx=0;exitDy=0;entryX=1;entryY=1;entryDx=0;entryDy=0;" edge="1" parent="WIyWlLk6GJQsqaUBKTNV-1" source="7PgOXvjgWC53uZLiy5cf-110" target="7PgOXvjgWC53uZLiy5cf-46">
          <mxGeometry relative="1" as="geometry">
            <mxPoint x="980" y="2290" as="targetPoint" />
          </mxGeometry>
        </mxCell>
        <mxCell id="7PgOXvjgWC53uZLiy5cf-113" style="edgeStyle=none;rounded=0;orthogonalLoop=1;jettySize=auto;html=1;exitX=0.5;exitY=0;exitDx=0;exitDy=0;entryX=0.5;entryY=1;entryDx=0;entryDy=0;" edge="1" parent="WIyWlLk6GJQsqaUBKTNV-1" source="7PgOXvjgWC53uZLiy5cf-110" target="7PgOXvjgWC53uZLiy5cf-23">
          <mxGeometry relative="1" as="geometry" />
        </mxCell>
        <mxCell id="7PgOXvjgWC53uZLiy5cf-110" value="管理" style="rhombus;whiteSpace=wrap;html=1;rounded=1;glass=0;strokeWidth=1;shadow=0;" vertex="1" parent="WIyWlLk6GJQsqaUBKTNV-1">
          <mxGeometry x="1030" y="2310" width="75" height="45" as="geometry" />
        </mxCell>
        <mxCell id="7PgOXvjgWC53uZLiy5cf-126" style="edgeStyle=none;rounded=0;orthogonalLoop=1;jettySize=auto;html=1;exitX=1;exitY=0.5;exitDx=0;exitDy=0;entryX=0;entryY=0;entryDx=0;entryDy=0;" edge="1" parent="WIyWlLk6GJQsqaUBKTNV-1" source="7PgOXvjgWC53uZLiy5cf-120" target="7PgOXvjgWC53uZLiy5cf-46">
          <mxGeometry relative="1" as="geometry" />
        </mxCell>
        <mxCell id="7PgOXvjgWC53uZLiy5cf-120" value="用户id" style="ellipse;whiteSpace=wrap;html=1;" vertex="1" parent="WIyWlLk6GJQsqaUBKTNV-1">
          <mxGeometry x="670" y="2180" width="60" height="40" as="geometry" />
        </mxCell>
        <mxCell id="7PgOXvjgWC53uZLiy5cf-127" style="edgeStyle=none;rounded=0;orthogonalLoop=1;jettySize=auto;html=1;exitX=1;exitY=1;exitDx=0;exitDy=0;" edge="1" parent="WIyWlLk6GJQsqaUBKTNV-1" source="7PgOXvjgWC53uZLiy5cf-121">
          <mxGeometry relative="1" as="geometry">
            <mxPoint x="860" y="2210" as="targetPoint" />
          </mxGeometry>
        </mxCell>
        <mxCell id="7PgOXvjgWC53uZLiy5cf-121" value="手机号" style="ellipse;whiteSpace=wrap;html=1;" vertex="1" parent="WIyWlLk6GJQsqaUBKTNV-1">
          <mxGeometry x="695" y="2130" width="60" height="40" as="geometry" />
        </mxCell>
        <mxCell id="7PgOXvjgWC53uZLiy5cf-128" style="edgeStyle=none;rounded=0;orthogonalLoop=1;jettySize=auto;html=1;exitX=1;exitY=1;exitDx=0;exitDy=0;" edge="1" parent="WIyWlLk6GJQsqaUBKTNV-1" source="7PgOXvjgWC53uZLiy5cf-122">
          <mxGeometry relative="1" as="geometry">
            <mxPoint x="860" y="2210" as="targetPoint" />
          </mxGeometry>
        </mxCell>
        <mxCell id="7PgOXvjgWC53uZLiy5cf-122" value="邮箱" style="ellipse;whiteSpace=wrap;html=1;" vertex="1" parent="WIyWlLk6GJQsqaUBKTNV-1">
          <mxGeometry x="744.5" y="2090" width="60" height="40" as="geometry" />
        </mxCell>
        <mxCell id="7PgOXvjgWC53uZLiy5cf-129" style="edgeStyle=none;rounded=0;orthogonalLoop=1;jettySize=auto;html=1;exitX=0.5;exitY=1;exitDx=0;exitDy=0;" edge="1" parent="WIyWlLk6GJQsqaUBKTNV-1" source="7PgOXvjgWC53uZLiy5cf-123">
          <mxGeometry relative="1" as="geometry">
            <mxPoint x="860" y="2210" as="targetPoint" />
          </mxGeometry>
        </mxCell>
        <mxCell id="7PgOXvjgWC53uZLiy5cf-123" value="密码" style="ellipse;whiteSpace=wrap;html=1;" vertex="1" parent="WIyWlLk6GJQsqaUBKTNV-1">
          <mxGeometry x="815.5" y="2070" width="60" height="40" as="geometry" />
        </mxCell>
        <mxCell id="7PgOXvjgWC53uZLiy5cf-130" style="edgeStyle=none;rounded=0;orthogonalLoop=1;jettySize=auto;html=1;exitX=0.5;exitY=1;exitDx=0;exitDy=0;" edge="1" parent="WIyWlLk6GJQsqaUBKTNV-1" source="7PgOXvjgWC53uZLiy5cf-125">
          <mxGeometry relative="1" as="geometry">
            <mxPoint x="860" y="2210" as="targetPoint" />
          </mxGeometry>
        </mxCell>
        <mxCell id="7PgOXvjgWC53uZLiy5cf-125" value="简介" style="ellipse;whiteSpace=wrap;html=1;" vertex="1" parent="WIyWlLk6GJQsqaUBKTNV-1">
          <mxGeometry x="880" y="2070" width="60" height="40" as="geometry" />
        </mxCell>
        <mxCell id="7PgOXvjgWC53uZLiy5cf-132" style="edgeStyle=none;rounded=0;orthogonalLoop=1;jettySize=auto;html=1;exitX=0.5;exitY=1;exitDx=0;exitDy=0;entryX=0;entryY=0;entryDx=0;entryDy=0;" edge="1" parent="WIyWlLk6GJQsqaUBKTNV-1" source="7PgOXvjgWC53uZLiy5cf-131" target="7PgOXvjgWC53uZLiy5cf-46">
          <mxGeometry relative="1" as="geometry" />
        </mxCell>
        <mxCell id="7PgOXvjgWC53uZLiy5cf-131" value="收获地址" style="ellipse;whiteSpace=wrap;html=1;" vertex="1" parent="WIyWlLk6GJQsqaUBKTNV-1">
          <mxGeometry x="930" y="2100" width="60" height="40" as="geometry" />
        </mxCell>
      </root>
    </mxGraphModel>
  </diagram>
</mxfile>
